<svg id="Layer_1" data-name="Layer 1" xmlns="http://www.w3.org/2000/svg" xmlns:xlink="http://www.w3.org/1999/xlink" viewBox="0 0 854.07 253.02"><defs><style>.cls-1{fill:#122307;}.cls-2{fill:#172b07;}.cls-3{fill:#5eebb7;}.cls-4{fill:#64ddc8;}.cls-5{fill:url(#linear-gradient);}.cls-6{fill:url(#linear-gradient-2);}.cls-7{fill:#50b1d2;}.cls-8{fill:#4099de;}</style><linearGradient id="linear-gradient" x1="189.11" y1="90.27" x2="189.11" y2="76.82" gradientUnits="userSpaceOnUse"><stop offset="0" stop-color="#5bc2c9"/><stop offset="0.54" stop-color="#5bc2c9"/><stop offset="1" stop-color="#5bc2c9"/><stop offset="1" stop-color="#75eab4"/></linearGradient><linearGradient id="linear-gradient-2" x1="197.38" y1="83.54" x2="210.83" y2="83.54" xlink:href="#linear-gradient"/></defs><title>Logo Terbaru 2022 navbar</title><path class="cls-1" d="M508.63,522.75H524.5v25.08Q514,559.56,495.38,559.56q-15.57,0-26.13-10.32t-10.57-26q0-15.72,10.77-26.24a35.85,35.85,0,0,1,26-10.52,38.44,38.44,0,0,1,26.44,10l-8.19,11.83a31.44,31.44,0,0,0-8.74-5.71,23.62,23.62,0,0,0-8.65-1.57,20.68,20.68,0,0,0-15.16,6.12Q475,513.25,475,523.26t5.91,16a19.13,19.13,0,0,0,14.11,6q8.19,0,13.65-3.14Z" transform="translate(-100.4 -409.13)"/><path class="cls-1" d="M588.91,531.55a26.89,26.89,0,0,1-8.19,19.92q-8.19,8.09-20.58,8.09t-20.57-8.09a28.38,28.38,0,0,1,0-39.89q8.19-8.15,20.57-8.14t20.58,8.14a27.07,27.07,0,0,1,8.19,20m-42.27,0a15.59,15.59,0,0,0,3.8,10.87,13.33,13.33,0,0,0,19.41,0,15.58,15.58,0,0,0,3.79-10.87,15.76,15.76,0,0,0-3.79-10.92,13.21,13.21,0,0,0-19.41,0,15.77,15.77,0,0,0-3.8,10.92" transform="translate(-100.4 -409.13)"/><rect class="cls-1" x="497.2" y="74.59" width="15.17" height="75.02"/><path class="cls-1" d="M671.71,550.86a30.4,30.4,0,0,1-21.58,8.7q-12.39,0-20.48-7.64t-8.09-20.47q0-12.84,8.24-20.43a27.84,27.84,0,0,1,19.47-7.58,28.18,28.18,0,0,1,19.06,6.77q7.83,6.78,7.83,18.61v8.09H636.53a10.82,10.82,0,0,0,4.65,7.28,14.86,14.86,0,0,0,8.9,2.83,17.46,17.46,0,0,0,13.14-5.36Zm-14.56-32.25a11.43,11.43,0,0,0-7.63-2.63,13.66,13.66,0,0,0-8.24,2.73,10.44,10.44,0,0,0-4.35,7.38h23.86a10.76,10.76,0,0,0-3.64-7.48" transform="translate(-100.4 -409.13)"/><polygon class="cls-1" points="599.32 149.62 584.15 149.62 584.15 74.59 599.32 74.59 599.32 113.11 616.2 95.12 635.31 95.12 614.58 117.16 636.12 149.62 618.12 149.62 604.27 128.79 599.32 133.94 599.32 149.62"/><polygon class="cls-1" points="673.39 92.59 673.39 149.62 657.62 149.62 657.62 92.59 637.6 92.59 637.6 78.94 693.41 78.94 693.41 92.59 673.39 92.59"/><path class="cls-1" d="M829.91,517.7q-6.78,0-10.12,4.8t-3.33,12.69v23.56H801.29v-54.4h15.17v7.18a25.33,25.33,0,0,1,7.33-5.66,19.94,19.94,0,0,1,9-2.43l.1,14.26Z" transform="translate(-100.4 -409.13)"/><path class="cls-1" d="M875.4,533.67V504.35h15.27v54.4H875.4v-7.18q-5.65,8-14.61,8a21.24,21.24,0,0,1-15-5.62q-6.07-5.61-6.07-16.63v-33H855V534q0,12.53,9.2,12.53a10.88,10.88,0,0,0,7.89-3.28q3.33-3.29,3.33-9.56" transform="translate(-100.4 -409.13)"/><polygon class="cls-1" points="817.26 149.62 802.1 149.62 802.1 74.59 817.26 74.59 817.26 113.11 834.15 95.12 853.26 95.12 832.53 117.16 854.07 149.62 836.07 149.62 822.22 128.79 817.26 133.94 817.26 149.62"/><path class="cls-2" d="M307.81,409.71a109.36,109.36,0,0,0-105.1,164.75L171.05,596.7a14.21,14.21,0,0,0-17.89-1.3L121.3,617.52l-19,13.23a4.46,4.46,0,0,0-1.11,6.19l16.22,23.3a4.45,4.45,0,0,0,6.2,1.1l51-35.51a14.09,14.09,0,0,0,5.82-14l33.76-21.58a109.34,109.34,0,1,0,93.64-180.55M380.62,527.1a84.41,84.41,0,1,1-75.35-92.58,84.42,84.42,0,0,1,75.35,92.58" transform="translate(-100.4 -409.13)"/><path class="cls-2" d="M332.67,538.58A11.43,11.43,0,1,0,344.1,550a11.43,11.43,0,0,0-11.43-11.43m0,20.2a8.54,8.54,0,0,1-1.76-.18,8.77,8.77,0,0,0,0-17.18,8.54,8.54,0,0,1,1.76-.18,8.77,8.77,0,0,1,0,17.54" transform="translate(-100.4 -409.13)"/><path class="cls-2" d="M356.36,495.67c-1-2.62-17.74-24.55-35.12-24.55H315.4m0,0V550H319a13.7,13.7,0,1,1,27.4,0h20v-7.07h-3.08V538h1.45a1.63,1.63,0,0,0,1.63-1.63v-12a6,6,0,0,0-.14-1.27L360.71,499c-1.09-4.77-10.21-8.15-10.21-8.15m.61,23.41a2,2,0,0,1-2.49,1.94l-20.72-5.24a2,2,0,0,1-1.51-1.94v-10.8a2,2,0,0,1,2-2h20.72a2,2,0,0,1,2,2Z" transform="translate(-100.4 -409.13)"/><path class="cls-2" d="M250.22,538.58A11.43,11.43,0,1,0,261.65,550a11.43,11.43,0,0,0-11.43-11.43m0,20.2a8.54,8.54,0,0,1-1.76-.18,8.77,8.77,0,0,0,0-17.18,8.54,8.54,0,0,1,1.76-.18,8.77,8.77,0,0,1,0,17.54" transform="translate(-100.4 -409.13)"/><path class="cls-2" d="M311.23,533.7V550H263.91a13.7,13.7,0,1,0-27.4,0h-3.83a9.85,9.85,0,0,1-9.85-9.85V533.7Z" transform="translate(-100.4 -409.13)"/><rect class="cls-3" x="197.38" y="46.93" width="13.45" height="13.51"/><rect class="cls-4" x="197.38" y="61.85" width="13.45" height="13.45"/><rect class="cls-5" x="182.38" y="76.82" width="13.45" height="13.45"/><rect class="cls-6" x="197.38" y="76.82" width="13.45" height="13.45"/><rect class="cls-7" x="182.38" y="91.98" width="13.45" height="13.45"/><rect class="cls-7" x="197.38" y="91.98" width="13.45" height="13.45"/><rect class="cls-7" x="167.39" y="91.98" width="13.45" height="13.45"/><rect class="cls-8" x="137.39" y="106.86" width="13.45" height="13.49"/><rect class="cls-8" x="122.39" y="106.86" width="13.45" height="13.49"/><rect class="cls-8" x="167.39" y="106.86" width="13.45" height="13.49"/><rect class="cls-8" x="152.39" y="106.86" width="13.45" height="13.49"/><rect class="cls-8" x="197.38" y="106.86" width="13.45" height="13.49"/><rect class="cls-8" x="182.39" y="106.86" width="13.45" height="13.49"/></svg>